<?xml version="1.0" encoding="UTF-8"?>
<svg id="Layer_1" data-name="Layer 1" xmlns="http://www.w3.org/2000/svg" xmlns:xlink="http://www.w3.org/1999/xlink" viewBox="0 0 1992 900">
  <defs>
    <style>
      .cls-1 {
        fill: url(#linear-gradient-2);
      }

      .cls-2 {
        fill: url(#linear-gradient-4);
      }

      .cls-3 {
        fill: url(#linear-gradient-3);
      }

      .cls-4 {
        fill: url(#linear-gradient);
      }
    </style>
    <linearGradient id="linear-gradient" x1="1661.67" y1="3935.71" x2="1661.67" y2="3724" gradientTransform="translate(0 4170.42) scale(1 -1)" gradientUnits="userSpaceOnUse">
      <stop offset="0" stop-color="#312ce6"/>
      <stop offset="1" stop-color="#039dff"/>
    </linearGradient>
    <linearGradient id="linear-gradient-2" x1="1534.58" y1="449.42" x2="1534.58" y2="205.43" gradientUnits="userSpaceOnUse">
      <stop offset="0" stop-color="#4f0031"/>
      <stop offset=".06" stop-color="#7a004b"/>
      <stop offset=".3" stop-color="#b0165a"/>
      <stop offset="1" stop-color="#ff2082"/>
    </linearGradient>
    <linearGradient id="linear-gradient-3" y1="-2181.87" y2="-2393.58" gradientTransform="translate(0 2847.16)" xlink:href="#linear-gradient"/>
    <linearGradient id="linear-gradient-4" x1="1534.58" y1="6567" x2="1534.58" y2="6323.01" gradientTransform="translate(0 7017.58) scale(1 -1)" xlink:href="#linear-gradient-2"/>
  </defs>
  <g>
    <path d="M1320.21,650l-71.41-400h-71.06s-71.42,400-71.42,400h49.6s14.31-80.12,14.31-80.12h86.08l14.3,80.12h49.6ZM1178.95,521.05l34.33-192.24,34.32,192.24h-68.65Z"/>
    <rect x="470.53" y="250" width="48.83" height="400"/>
    <path d="M790.02,347.98v-12.36c0-51.62-42-85.62-93.62-85.62h-128.22v400h48.83v-159.23l62.52-25.74,47.36,67.81c9.36,13.4,14.3,29.12,14.3,45.46v71.7h48.83v-71.7c0-26.39-7.99-51.77-23.1-73.41l-41.77-59.82c39.85-22.58,64.87-50.39,64.87-97.1ZM741.2,347.98c0,32.3-19.3,46.8-49.17,59.1l-75.02,30.89v-139.14h79.39c24.7,0,44.79,12.09,44.79,36.79v12.36Z"/>
    <polygon points="1011.86 250 1011.86 425.59 887.68 425.59 887.68 250 838.85 250 838.85 650 887.68 650 887.68 474.42 1011.86 474.42 1011.86 650 1060.68 650 1060.68 250 1011.86 250"/>
    <path d="M421.71,281.2v-31.2h-48.83v31.2c0,21.2-8.25,41.13-23.24,56.13l-100.94,101v-188.33h-48.83v400h48.83v-142.6l44.81-44.84,65.06,93.16c9.36,13.4,14.3,29.12,14.3,45.46v48.83h48.83v-48.83c0-26.39-7.99-51.77-23.1-73.41l-70.04-100.28,55.61-55.64c24.2-24.21,37.53-56.4,37.53-90.64Z"/>
  </g>
  <g>
    <path class="cls-4" d="M1648.95,450c24.42,0,69.53-67.93,91.64-96.41,22.38-28.83,64.27-102.49,47.78-118.23-13.03-12.44-51.25-9.4-69.45-2.86-190.25,68.44-146.15,217.5-187.7,217.5h117.73Z"/>
    <path class="cls-1" d="M1648.95,450c-46.34,0-15.55-104.52-46.53-154.8-42.8-69.46-108.73-91.1-137.45-94.69-17.99-2.25-36.24,2.65-41.84,22.48-6.75,23.89-1.97,132.5,16.35,166.42,23.4,43.32,70.97,60.6,91.74,60.6h117.73Z"/>
    <path class="cls-3" d="M1648.95,450c24.42,0,69.53,67.93,91.64,96.41,22.38,28.83,64.27,102.49,47.78,118.23-13.03,12.44-51.25,9.4-69.45,2.86-190.25-68.44-146.15-217.5-187.7-217.5h117.73Z"/>
    <path class="cls-2" d="M1648.95,450c-46.34,0-15.55,104.52-46.53,154.8-42.8,69.46-108.73,91.1-137.45,94.69-17.99,2.25-36.24-2.65-41.84-22.48-6.75-23.89-1.97-132.5,16.35-166.42,23.4-43.32,70.97-60.6,91.74-60.6h117.73Z"/>
  </g>
</svg>
